
<svg version="1.0" xmlns="http://www.w3.org/2000/svg"
 width="1280.000000pt" height="720.000000pt" viewBox="0 0 1280.000000 720.000000"
 preserveAspectRatio="xMidYMid meet">

<g transform="translate(0.000000,720.000000) scale(0.100000,-0.100000)"
fill="#000000" stroke="none">
<path d="M0 3600 l0 -3600 1403 1 1402 0 -675 203 c-371 112 -720 216 -774
232 -54 16 -104 34 -111 39 -8 6 -23 137 -44 365 -17 195 -43 474 -56 620 -52
553 -146 1584 -166 1810 -11 129 -23 242 -26 250 -4 8 -5 19 -4 24 4 19 -73
841 -80 844 -3 1 -4 13 -2 25 2 12 -7 144 -21 292 -26 277 -182 1957 -213
2303 l-17 192 -308 0 -308 0 0 -3600z m1215 -3149 c3 -5 2 -12 -3 -15 -5 -3
-9 1 -9 9 0 17 3 19 12 6z m56 -18 c13 -16 12 -17 -3 -4 -10 7 -18 15 -18 17
0 8 8 3 21 -13z m-31 -7 c0 -3 -4 -8 -10 -11 -5 -3 -10 -1 -10 4 0 6 5 11 10
11 6 0 10 -2 10 -4z"/>
<path d="M6321 7043 c-7 -87 -16 -219 -21 -293 -5 -74 -12 -164 -15 -200 -6
-74 -31 -424 -45 -640 -5 -80 -12 -172 -15 -205 -3 -33 -12 -161 -20 -285 -8
-124 -17 -252 -20 -285 -3 -33 -12 -157 -20 -275 -8 -118 -17 -244 -20 -280
-3 -36 -9 -132 -15 -215 -6 -82 -15 -211 -20 -285 -5 -74 -12 -173 -15 -220
-3 -47 -8 -110 -10 -140 -3 -30 -7 -89 -10 -130 -3 -41 -8 -104 -10 -140 -3
-36 -7 -99 -10 -140 -3 -41 -9 -138 -15 -215 -6 -77 -13 -176 -15 -220 -3 -44
-8 -105 -10 -135 -3 -30 -9 -122 -15 -205 -15 -228 -20 -295 -25 -360 -3 -33
-9 -127 -15 -210 -6 -82 -19 -274 -30 -425 -11 -151 -22 -309 -25 -350 -6 -84
-12 -169 -20 -280 -3 -41 -12 -169 -20 -285 -8 -115 -18 -212 -23 -216 -6 -5
-583 -155 -1352 -350 -107 -28 -199 -52 -205 -54 -5 -2 1908 -4 4253 -4 l4262
-1 0 3600 0 3600 -3233 0 -3234 0 -12 -157z m1253 -3104 c27 -5 69 -18 93 -29
l43 -19 0 -95 c0 -64 -4 -96 -11 -96 -6 0 -32 15 -58 34 -64 47 -115 66 -175
66 -140 -1 -211 -94 -205 -268 4 -82 7 -95 34 -134 17 -23 49 -53 70 -65 79
-45 204 -23 291 50 18 15 37 27 43 27 7 0 11 -32 11 -95 l0 -96 -47 -20 c-27
-12 -83 -28 -127 -37 -66 -13 -92 -14 -160 -4 -144 21 -233 83 -289 201 -26
55 -31 79 -35 166 -5 113 10 186 55 262 80 137 254 194 467 152z m4046 1 c25
-6 64 -15 88 -21 l42 -12 0 -93 c0 -102 -4 -107 -49 -75 -59 42 -133 64 -218
65 -96 1 -136 -19 -141 -72 -4 -40 17 -51 169 -86 144 -33 212 -71 246 -135
41 -78 28 -178 -31 -248 -93 -107 -327 -139 -536 -72 l-68 22 -1 94 c-1 106 7
114 69 68 113 -83 340 -99 376 -27 15 30 7 60 -20 77 -11 7 -72 25 -134 39
-191 43 -267 102 -279 218 -12 122 56 208 202 254 48 15 222 17 285 4z m-3321
-67 c13 -38 77 -211 141 -386 l117 -318 -105 3 -105 3 -25 73 -24 72 -142 0
-142 0 -24 -75 -24 -75 -103 0 -103 0 11 28 c12 32 216 587 249 680 l23 62
116 0 116 0 24 -67z m735 -147 l131 -210 3 212 2 212 95 0 95 0 0 -385 0 -385
-99 0 -98 0 -149 246 c-82 135 -155 253 -162 262 -11 14 -12 -28 -9 -245 l4
-263 -93 0 -94 0 0 385 0 386 121 -3 121 -3 132 -209z m731 -50 c50 -146 93
-262 96 -258 4 4 43 117 88 252 45 135 85 251 90 258 6 9 34 12 107 10 l100
-3 -111 -305 c-61 -168 -124 -340 -139 -382 l-28 -78 -113 0 -112 0 -93 258
c-51 141 -114 314 -140 385 l-48 127 107 0 106 0 90 -264z m1151 -105 c73
-200 136 -372 139 -382 6 -18 -1 -19 -98 -19 l-103 0 -24 75 -24 75 -142 0
-142 0 -24 -72 -25 -73 -101 -3 c-56 -1 -102 -1 -102 2 0 2 13 40 30 83 25 66
232 632 245 671 4 9 33 12 121 10 l116 -3 134 -364z"/>
<path d="M8111 3608 c-23 -68 -41 -126 -41 -131 0 -4 40 -7 90 -7 l89 0 -45
127 c-25 70 -47 129 -49 131 -1 2 -21 -52 -44 -120z"/>
<path d="M10656 3720 c-3 -8 -24 -68 -45 -132 l-40 -118 90 0 c49 0 89 4 89 8
0 25 -89 255 -94 242z"/>
<path d="M1620 6270 l0 -440 145 0 145 0 0 144 0 144 93 7 c50 4 110 5 132 3
l40 -3 5 -145 5 -145 145 0 145 0 2 438 2 437 -149 0 -150 0 0 -145 0 -146
-132 3 -133 3 -3 143 -3 142 -144 0 -145 0 0 -440z"/>
<path d="M2610 6565 l0 -145 125 0 125 0 2 -292 3 -293 145 0 145 0 2 290 3
290 125 3 125 3 0 144 0 145 -400 0 -400 0 0 -145z"/>
<path d="M3542 6273 l3 -438 140 0 140 0 0 213 c0 116 2 212 5 212 3 0 48 -67
100 -150 52 -82 97 -149 100 -149 3 0 50 71 105 157 l100 157 3 -222 2 -223
140 0 140 0 0 440 0 440 -154 0 -153 0 -88 -145 c-48 -80 -91 -145 -95 -145
-4 0 -47 65 -95 145 l-88 145 -154 0 -153 0 2 -437z"/>
<path d="M4680 6695 c0 -8 0 -205 0 -437 l0 -423 347 0 348 0 3 148 3 147
-206 0 -205 0 0 290 0 290 -145 0 c-122 0 -145 -2 -145 -15z"/>
<path d="M1195 5403 c3 -16 23 -224 45 -463 51 -563 245 -2665 315 -3425 30
-324 58 -627 61 -672 4 -45 10 -86 13 -91 4 -6 414 -126 911 -267 655 -185
920 -256 960 -257 43 -1 245 53 960 256 498 142 907 262 911 267 3 5 13 98 23
207 9 108 39 436 66 727 28 292 93 996 145 1565 53 569 118 1277 145 1573 28
296 50 554 50 573 l0 34 -2305 0 -2304 0 4 -27z m3762 -955 c-3 -18 -16 -151
-28 -295 l-23 -263 -1108 0 c-1049 0 -1108 -1 -1108 -17 0 -10 11 -135 25
-278 14 -143 25 -266 25 -272 0 -10 218 -13 1055 -13 580 0 1055 -2 1055 -4 0
-2 -27 -296 -60 -653 -33 -356 -69 -751 -81 -878 -11 -126 -24 -233 -27 -236
-4 -4 -271 -81 -593 -173 l-585 -165 -540 153 c-296 84 -563 159 -593 167 -29
7 -55 18 -57 24 -1 5 -19 192 -39 415 -19 223 -38 422 -41 443 l-6 37 296 0
295 0 5 -32 c3 -18 12 -118 21 -223 9 -104 17 -190 18 -191 1 -1 144 -43 318
-94 l317 -91 298 87 c165 47 307 89 317 91 9 3 17 10 17 17 0 6 13 162 30 346
16 184 30 344 30 356 0 18 -6 20 -52 20 -29 0 -476 1 -994 2 l-940 2 -32 353
c-77 840 -121 1325 -126 1360 l-4 37 1460 0 1460 0 -5 -32z"/>
</g>
</svg>
