<?xml version="1.0" standalone="no"?>
<!DOCTYPE svg PUBLIC "-//W3C//DTD SVG 20010904//EN"
 "http://www.w3.org/TR/2001/REC-SVG-20010904/DTD/svg10.dtd">
<svg version="1.0" xmlns="http://www.w3.org/2000/svg"
 width="1024.000000pt" height="497.000000pt" viewBox="0 0 1024.000000 497.000000"
 preserveAspectRatio="xMidYMid meet">

<g transform="translate(0.000000,497.000000) scale(0.100000,-0.100000)"
fill="#000000" stroke="none">
<path d="M1261 3751 c-59 -21 -123 -79 -157 -141 -18 -34 -19 -75 -22 -1104
-3 -1218 -9 -1129 82 -1222 132 -136 335 -99 429 78 l22 43 0 1085 0 1085 -22
41 c-26 48 -92 110 -138 130 -59 24 -134 26 -194 5z"/>
<path d="M3300 3757 c-25 -7 -55 -19 -66 -27 -12 -8 -263 -254 -558 -547 -593
-588 -586 -579 -586 -700 0 -109 59 -197 165 -244 60 -27 151 -29 209 -4 27
11 207 182 582 552 601 592 594 584 594 702 0 183 -169 316 -340 268z"/>
<path d="M4139 3754 c-56 -17 -132 -82 -162 -138 l-22 -41 0 -690 c0 -685 0
-691 23 -779 124 -490 527 -844 1019 -897 170 -18 247 -2 318 66 96 94 109
266 26 366 -60 72 -98 89 -218 100 -59 6 -135 17 -168 25 -135 35 -286 145
-363 264 -19 30 -49 91 -66 135 l-31 80 -5 660 -5 660 -23 47 c-31 63 -102
124 -165 143 -61 18 -98 18 -158 -1z"/>
<path d="M5936 3754 c-70 -22 -149 -103 -170 -174 -20 -67 -20 -112 -1 -176
20 -68 64 -117 137 -153 112 -56 238 -33 321 59 49 54 67 103 67 182 0 189
-176 319 -354 262z"/>
<path d="M8825 3761 c-16 -4 -41 -13 -55 -20 -23 -12 -696 -671 -1080 -1058
-1013 -1020 -1057 -1066 -1075 -1122 -43 -131 14 -266 140 -334 57 -30 173
-30 232 1 26 14 199 178 448 425 478 474 815 804 819 799 2 -1 9 10 15 25 7
15 200 216 431 447 239 239 427 434 437 455 9 20 19 67 21 107 6 115 -44 201
-149 255 -43 22 -138 32 -184 20z"/>
<path d="M8310 2426 c0 -2 8 -10 18 -17 15 -13 16 -12 3 4 -13 16 -21 21 -21
13z"/>
<path d="M8870 1866 c0 -2 8 -10 18 -17 15 -13 16 -12 3 4 -13 16 -21 21 -21
13z"/>
<path d="M8837 1748 c-144 -30 -243 -171 -221 -313 9 -55 29 -92 78 -143 63
-67 107 -86 196 -87 60 0 84 5 123 25 56 28 102 76 128 134 26 58 25 163 -2
220 -23 49 -88 119 -134 144 -38 20 -120 30 -168 20z"/>
<path d="M3292 1736 c-233 -76 -259 -377 -44 -503 40 -24 58 -28 122 -27 85 0
135 20 190 76 108 107 106 302 -3 394 -72 61 -185 86 -265 60z"/>
</g>
</svg>
