<?xml version="1.0" standalone="no"?>
<!DOCTYPE svg PUBLIC "-//W3C//DTD SVG 20010904//EN"
 "http://www.w3.org/TR/2001/REC-SVG-20010904/DTD/svg10.dtd">
<svg version="1.0" xmlns="http://www.w3.org/2000/svg"
 width="800.000000pt" height="400.000000pt" viewBox="0 0 800.000000 400.000000"
 preserveAspectRatio="xMidYMid meet">

<g transform="translate(0.000000,400.000000) scale(0.100000,-0.100000)"
fill="#000000" stroke="none">
<path d="M1880 3078 c-84 -44 -80 -14 -80 -676 0 -569 0 -584 21 -623 51 -101
204 -98 252 4 15 31 17 94 17 624 0 572 -1 589 -20 621 -21 34 -87 71 -125 72
-12 0 -41 -10 -65 -22z"/>
<path d="M2990 3085 c-39 -18 -603 -573 -626 -617 -34 -65 -5 -161 59 -195 40
-21 103 -21 142 0 17 8 164 150 328 314 l297 299 0 54 c0 118 -100 189 -200
145z"/>
<path d="M3455 3086 c-41 -18 -83 -69 -90 -110 -4 -18 -5 -194 -3 -392 l3
-359 28 -80 c90 -254 302 -420 563 -440 89 -7 131 7 167 56 28 38 33 108 12
153 -27 57 -65 78 -156 86 -141 12 -251 92 -301 218 -21 54 -22 73 -28 422 -4
327 -7 369 -23 393 -37 56 -114 80 -172 53z"/>
<path d="M4435 3086 c-67 -30 -104 -106 -84 -176 12 -45 26 -62 69 -89 65 -39
152 -18 198 49 45 67 14 173 -62 209 -49 24 -79 26 -121 7z"/>
<path d="M5993 3084 c-36 -18 -1135 -1112 -1164 -1159 -38 -62 -16 -160 45
-200 38 -25 95 -28 139 -8 42 20 1149 1119 1173 1165 8 15 14 47 14 71 0 106
-112 177 -207 131z"/>
<path d="M2980 1981 c-109 -57 -105 -208 5 -261 104 -50 205 17 205 137 0 41
-5 58 -27 84 -49 58 -120 74 -183 40z"/>
<path d="M5977 1978 c-48 -29 -82 -94 -73 -146 11 -68 68 -122 137 -129 87 -8
159 58 159 146 0 118 -120 188 -223 129z"/>
<path d="M3627 1228 c-3 -7 -42 -101 -87 -208 -45 -107 -86 -205 -91 -217 -8
-21 -6 -23 29 -23 l37 0 87 213 c48 116 90 220 94 230 5 14 0 17 -29 17 -19 0
-37 -6 -40 -12z"/>
<path d="M5875 1226 c-71 -32 -105 -101 -105 -213 0 -105 13 -144 60 -186 89
-81 234 -55 286 50 14 29 19 61 19 133 0 83 -3 101 -25 139 -44 78 -153 114
-235 77z m124 -70 c15 -8 32 -26 39 -40 32 -70 22 -205 -18 -241 -10 -9 -36
-19 -58 -22 -33 -4 -44 -1 -73 25 l-34 30 0 100 c0 86 3 103 20 122 36 40 78
49 124 26z"/>
<path d="M3833 1218 c2 -7 35 -106 73 -220 l69 -208 47 0 47 0 67 208 c37 114
69 213 71 220 4 8 -7 12 -35 12 l-41 0 -54 -167 -54 -168 -54 168 -54 167 -43
0 c-31 0 -43 -4 -39 -12z"/>
<path d="M4390 1010 l0 -220 45 0 45 0 0 220 0 220 -45 0 -45 0 0 -220z"/>
<path d="M4710 1011 l0 -221 119 0 c106 0 122 2 152 23 55 36 79 96 79 197 0
69 -4 94 -22 130 -39 75 -61 85 -204 88 l-124 4 0 -221z m222 138 c29 -16 48
-70 48 -139 0 -69 -19 -123 -48 -139 -12 -6 -48 -11 -81 -11 l-61 0 0 150 0
150 61 0 c33 0 69 -5 81 -11z"/>
<path d="M5270 1010 l0 -220 160 0 160 0 0 35 0 35 -120 0 -120 0 0 60 0 60
105 0 105 0 0 35 0 34 -102 3 -103 3 -3 53 -3 52 120 0 121 0 0 35 0 35 -160
0 -160 0 0 -220z"/>
</g>
</svg>
