<svg width="20" height="20" viewBox="0 0 20 20" fill="none" xmlns="http://www.w3.org/2000/svg">
<g clip-path="url(#clip0_1634_18242)">
<path d="M18.3314 4.47119L13.333 13.1273H19.5065C19.8395 12.1186 20.0092 11.0632 20.0092 10.0009C20.0097 8.03221 19.4257 6.10769 18.3314 4.47119Z" fill="#329DFB"/>
<path d="M17.4554 3.34033C16.5192 2.28816 15.3706 1.44643 14.0852 0.870653C12.7999 0.294878 11.4071 -0.00186151 9.99871 8.78632e-06C9.79146 8.78632e-06 9.58421 1.01323e-05 9.37695 0.0220584L14.3753 8.67821L17.4554 3.34033Z" fill="#329DFB"/>
<path d="M0.50271 6.87256C0.17257 7.8825 0.0058425 8.93868 0.00882847 10.0012C0.00644715 11.9689 0.587253 13.8931 1.67788 15.5309L6.66741 6.87256H0.50271Z" fill="#329DFB"/>
<path d="M12.0404 19.7908C13.5215 19.4812 14.9133 18.8398 16.1109 17.9149C17.3085 16.9899 18.2808 15.8055 18.9547 14.4507H8.95801L12.0404 19.7908Z" fill="#329DFB"/>
<path d="M7.95926 0.209473C6.47808 0.519072 5.08637 1.16045 3.88877 2.08538C2.69116 3.01032 1.71885 4.19473 1.04492 5.54957H11.0328L7.95926 0.209473Z" fill="#329DFB"/>
<path d="M2.54395 16.6599C3.47984 17.7119 4.62812 18.5535 5.91307 19.1293C7.19801 19.7051 8.59042 20.0019 9.99847 20.0002C10.219 20.0002 10.4152 20.0002 10.6224 19.9782L5.62409 11.3242L2.54395 16.6599Z" fill="#329DFB"/>
</g>
<defs>
<clipPath id="clip0_1634_18242">
<rect width="20" height="20" fill="white"/>
</clipPath>
</defs>
</svg>

